<?xml version="1.0" encoding="UTF-8"?>
<svg width="1421.8" height="412.52" version="1.1" viewBox="0 0 376.19 109.15" xml:space="preserve" xmlns="http://www.w3.org/2000/svg" xmlns:xlink="http://www.w3.org/1999/xlink"><defs><linearGradient id="c"><stop stop-color="#e91e63" offset="0"/><stop stop-color="#ffa700  " stop-opacity=".75" offset="1"/></linearGradient><linearGradient id="a"><stop stop-color="#e91e63 " offset="0"/><stop stop-color="#ffa700" offset="1"/></linearGradient><style type="text/css">
  </style><style type="text/css">
  </style><linearGradient id="f" x1="4.2242" x2="132.84" y1="12.454" y2="121.6" gradientUnits="userSpaceOnUse"><stop stop-color="#e91e63" offset="0"/><stop stop-color="#ffa700" stop-opacity=".75" offset="1"/></linearGradient><linearGradient id="e" x1="668.9" x2="863.73" y1="327.21" y2="492.55" gradientUnits="userSpaceOnUse" xlink:href="#a"/><linearGradient id="d" x1="723.09" x2="807.94" y1="368.57" y2="420.72" gradientUnits="userSpaceOnUse" xlink:href="#a"/><linearGradient id="b" x1="152.96" x2="152.96" y1="16.822" y2="118.64" gradientUnits="userSpaceOnUse" xlink:href="#c"/></defs><g transform="translate(-13.803 -13.16)"><g transform="translate(9.5789 .70607)"><g transform="matrix(.66013 0 0 .66013 -437.34 -203.55)" fill="none" stroke="url(#e)"><path d="m796.32 359.11v52.5m-30.284 0c15 15 30.284 0 30.284 0m-30.284-45c15 15 30.284 0 30.284 0m-30.284 30c15 15 30.284 0 30.284 0m-60-15s14.433-15 29.433 0 30.567 0 30.567 0m-60-22.5s0-17.898 30-17.898 30 17.898 30 17.898m-60 0v60" fill="none" stroke="url(#d)" stroke-linecap="round" stroke-width="3.6"/></g><path d="m121.66 99.131h-38.599c1.6636 9.2296 2.7562 15.579 7.8674 19.572h11.16c1.8872 3.3e-4 1.9651 2.8969-1e-5 2.897h-67.104c-1.7685 2e-3 -1.6729-2.8948 2e-6 -2.897h11.347c5.1083-3.9927 6.016-10.342 7.6769-19.572h-38.596c-6.1768-2e-6 -11.184-5.0073-11.184-11.184v-64.308c1.7e-6 -6.1768 5.0073-11.184 11.184-11.184h106.25c6.1768-4e-6 11.184 5.0073 11.184 11.184v64.308c0 6.1768-5.0073 11.184-11.184 11.184zm-71.586 19.572h36.921c-4.4596-4.7029-5.3654-11.117-6.6068-19.572h-23.439c-1.2414 8.4552-2.4159 14.869-6.8755 19.572zm80.074-95.065c0-6.019-4.8442-8.3994-8.4874-8.3994h-106.25c-4.2254 0-8.3115 4.6093-8.3115 8.3994v55.921h123.05zm0 58.716h-123.05v5.592c0 3.1711 2.0252 8.2002 8.3115 8.3264h106.25c4.1996 0 8.4874-3.638 8.4874-8.3264zm-61.612 8.3881c-3.7294 0.0014-3.7294-5.5906 0-5.592 3.7294-0.0014 3.7294 5.5906 0 5.592z" clip-rule="evenodd" fill="url(#f)" fill-rule="evenodd" stroke-width=".996"/></g><g fill="url(#b)" stroke-width=".26458" aria-label="HACKER'S HAVEN"><path d="m152.96 54.414v-37.084h6.35v14.884h9.9568v-14.884h6.35v37.084h-6.35v-16.459h-9.9568v16.459z"/><path d="m181.31 54.414 9.3472-37.084h8.1788l9.398 37.084h-6.5024l-2.032-8.9916h-9.8552l-2.032 8.9916zm9.7028-14.173h7.5184l-2.2352-9.9568q-0.5588-2.4892-0.9652-4.4704-0.4064-2.032-0.5588-2.9464-0.1524 0.9144-0.5588 2.9464-0.4064 1.9812-0.9652 4.4196z"/><path d="m225.46 54.922q-3.6068 0-6.2484-1.3208-2.6416-1.3716-4.1148-3.81-1.4224-2.4892-1.4224-5.842v-16.154q0-3.3528 1.4224-5.7912 1.4732-2.4892 4.1148-3.81 2.6416-1.3716 6.2484-1.3716 3.556 0 6.1976 1.3716 2.6416 1.3208 4.1148 3.81 1.4732 2.4384 1.4732 5.7912h-6.4008q0-2.5908-1.4224-3.9624-1.3716-1.4224-3.9624-1.4224t-4.0132 1.3716-1.4224 3.9624v16.205q0 2.5908 1.4224 4.0132 1.4224 1.3716 4.0132 1.3716t3.9624-1.3716q1.4224-1.4224 1.4224-4.0132h6.4008q0 3.3528-1.4732 5.842-1.4732 2.4384-4.1148 3.81-2.6416 1.3208-6.1976 1.3208z"/><path d="m244.35 54.414v-37.084h6.35v15.138h4.3688l7.0612-15.138h6.858l-8.3312 17.678 8.7376 19.406h-7.0612l-7.3152-16.408h-4.318v16.408z"/><path d="m275.44 54.414v-37.084h22.25v5.588h-16.002v9.652h14.224v5.3848h-14.224v10.871h16.002v5.588z"/><path d="m305.31 54.414v-37.084h11.735q3.7084 0 6.4008 1.3716 2.7432 1.3716 4.2672 3.8608 1.524 2.4384 1.524 5.7912 0 3.7084-1.8796 6.5024-1.8288 2.7432-4.9784 3.9116l7.366 15.646h-7.112l-6.4516-14.732h-4.5212v14.732zm6.35-20.32h5.3848q2.6924 0 4.2164-1.4732t1.524-4.064-1.5748-4.1148q-1.524-1.524-4.1656-1.524h-5.3848z"/><path d="m344.48 32.57-0.6604-7.3152v-7.9248h6.4516v7.9248l-0.6096 7.3152z"/><path d="m377.76 54.922q-3.81 0-6.604-1.27-2.7432-1.3208-4.318-3.6576-1.524-2.3876-1.524-5.588h6.35q0 2.286 1.6764 3.6576 1.6764 1.3208 4.4704 1.3208 2.7432 0 4.2672-1.3208 1.5748-1.3208 1.5748-3.6068 0-1.8796-1.0668-3.2004-1.0668-1.3716-2.9464-1.8796l-4.4704-1.2192q-4.318-1.1684-6.7056-4.0132-2.3876-2.8956-2.3876-6.9596 0-4.7244 3.1496-7.5184 3.1496-2.8448 8.4836-2.8448 5.3848 0 8.5344 2.794 3.2004 2.7432 3.2004 7.4168h-6.35q0-2.1336-1.4732-3.4036-1.4224-1.27-3.9624-1.27-2.4892 0-3.9116 1.27-1.3716 1.2192-1.3716 3.4544 0 1.7272 1.016 2.9972 1.0668 1.27 3.048 1.778l4.5212 1.27q4.318 1.1684 6.6548 4.064 2.3876 2.8448 2.3876 7.0612 0 3.2004-1.524 5.6388-1.524 2.3876-4.2672 3.7084t-6.4516 1.3208z"/><path d="m152.96 118.64v-37.084h6.35v14.884h9.9568v-14.884h6.35v37.084h-6.35v-16.459h-9.9568v16.459z"/><path d="m181.31 118.64 9.3472-37.084h8.1788l9.398 37.084h-6.5024l-2.032-8.9916h-9.8552l-2.032 8.9916zm9.7028-14.173h7.5184l-2.2352-9.9568q-0.5588-2.4892-0.9652-4.4704-0.4064-2.032-0.5588-2.9464-0.1524 0.9144-0.5588 2.9464-0.4064 1.9812-0.9652 4.4196z"/><path d="m221.14 118.64-9.3472-37.084h6.5532l5.6388 24.181q0.4572 1.778 0.8128 3.8608 0.4064 2.032 0.6096 3.2512 0.2032-1.2192 0.5588-3.2512 0.4064-2.0828 0.8636-3.9116l5.4356-24.13h6.4516l-9.3472 37.084z"/><path d="m244.96 118.64v-37.084h22.25v5.588h-16.002v9.652h14.224v5.3848h-14.224v10.871h16.002v5.588z"/><path d="m274.63 118.64v-37.084h7.7724l10.312 29.972q-0.1524-1.6256-0.3048-3.81-0.1524-2.2352-0.3048-4.5212-0.1016-2.286-0.1016-4.064v-17.577h5.7912v37.084h-7.7724l-10.211-29.972q0.1016 1.4732 0.254 3.556t0.254 4.2672 0.1016 4.0132v18.136z"/></g></g></svg>
